<?xml version="1.0" standalone="no"?>
<!DOCTYPE svg PUBLIC "-//W3C//DTD SVG 20010904//EN"
 "http://www.w3.org/TR/2001/REC-SVG-20010904/DTD/svg10.dtd">
<svg version="1.0" xmlns="http://www.w3.org/2000/svg"
 width="242.000000pt" height="242.000000pt" viewBox="0 0 242.000000 242.000000"
 preserveAspectRatio="xMidYMid meet">
<metadata>
Created by potrace 1.14, written by Peter Selinger 2001-2017
</metadata>
<g transform="translate(0.000000,242.000000) scale(0.100000,-0.100000)"
fill="#000000" stroke="none">
<path d="M1065 2342 c-2 -2 -33 -6 -67 -8 -35 -1 -76 -7 -93 -11 -16 -5 -37
-9 -45 -8 -8 0 -17 -2 -20 -5 -3 -3 -33 -18 -68 -35 -35 -16 -67 -34 -70 -40
-4 -5 -25 -22 -47 -37 -77 -53 -195 -178 -195 -208 0 -7 -3 -10 -6 -7 -4 4
-20 -19 -35 -50 -16 -31 -26 -59 -24 -62 3 -2 -3 -13 -12 -24 -11 -12 -12 -17
-4 -12 11 6 12 5 5 -6 -5 -8 -9 -17 -10 -21 -1 -5 -3 -9 -4 -10 -1 -2 -3 -14
-4 -28 0 -14 -4 -29 -7 -35 -4 -5 -6 -27 -5 -48 0 -20 -3 -39 -9 -42 -7 -3 -7
-7 0 -10 6 -3 10 -30 9 -60 0 -30 3 -55 8 -55 5 0 7 -4 4 -8 -3 -5 -1 -33 4
-63 6 -30 12 -70 15 -89 6 -41 10 -59 18 -80 5 -14 17 -60 23 -87 1 -7 -2 -15
-6 -18 -5 -3 -7 -12 -4 -19 3 -8 1 -17 -4 -20 -6 -3 -8 -21 -7 -38 4 -38 49
-131 59 -121 3 3 6 1 6 -6 0 -7 14 -30 30 -51 17 -21 30 -42 30 -46 0 -5 11
-22 25 -38 14 -16 25 -33 25 -37 0 -5 17 -26 38 -47 31 -32 43 -38 76 -37 42
2 76 -24 76 -57 0 -10 5 -18 11 -18 5 0 7 -5 4 -11 -4 -5 1 -19 11 -30 9 -10
14 -19 10 -19 -4 0 -1 -10 6 -22 7 -13 12 -27 13 -31 0 -4 6 -11 13 -16 8 -5
13 -11 13 -15 -4 -23 17 -67 49 -101 21 -22 41 -47 46 -57 9 -17 145 -130 196
-162 17 -11 42 -30 55 -42 31 -28 102 -44 201 -44 100 0 138 12 188 58 48 44
124 154 124 180 0 22 33 121 53 160 31 57 62 150 59 170 -2 6 1 12 6 12 4 0 7
12 7 28 -1 15 1 31 4 37 2 5 6 41 8 80 3 79 8 99 23 90 5 -3 10 1 10 10 0 9 6
15 12 13 17 -6 43 29 63 83 9 24 21 53 26 64 13 28 19 175 8 175 -6 0 -6 7 0
18 6 11 6 24 0 35 -6 9 -8 21 -4 26 3 5 1 12 -5 16 -5 3 -10 15 -10 26 0 10
-4 19 -10 19 -5 0 -10 9 -10 20 0 11 -3 20 -7 20 -5 0 -9 24 -9 53 -2 76 -8
137 -14 137 -4 0 -10 45 -14 108 0 12 -4 22 -7 22 -7 0 -23 59 -20 73 0 4 -4
7 -11 7 -6 0 -9 3 -5 6 6 7 -51 125 -65 135 -5 3 -10 14 -12 23 -1 10 -9 22
-17 27 -8 5 -11 9 -6 9 4 0 -1 8 -10 18 -10 10 -24 28 -32 40 -8 11 -18 19
-23 16 -4 -3 -8 2 -8 11 0 9 -4 13 -10 10 -5 -3 -10 1 -10 9 0 9 -7 16 -17 16
-9 0 -14 3 -10 6 7 7 -46 54 -60 54 -5 0 -15 9 -23 20 -8 11 -20 20 -27 20 -7
0 -13 3 -13 8 0 14 -152 71 -197 74 -7 1 -13 5 -13 8 0 8 -237 10 -245 2z"/>
</g>
</svg>
